<svg width="240" height="64" viewBox="0 0 240 64" fill="none" xmlns="http://www.w3.org/2000/svg">
<rect width="64" height="64" rx="21" fill="#3B82F6"/>
<path d="M34.7871 19.5958C32.978 18.9928 31.0103 18.9967 29.2012 19.5998C28.4596 19.847 27.898 20.4682 27.7313 21.2319L27.2864 23.2714C26.9269 24.9191 26.7471 25.743 26.1831 26.2993C25.6191 26.8555 24.7928 27.0238 23.1402 27.3605L21.2494 27.7456C20.4764 27.9031 19.846 28.4624 19.5966 29.2107C18.9935 31.0198 18.9927 32.9781 19.5958 34.7871C19.8458 35.5372 20.4786 36.0958 21.2539 36.2509L23.1802 36.6362C24.8702 36.9742 25.7152 37.1432 26.2861 37.7141C26.8571 38.285 27.0261 39.13 27.3641 40.82L27.7493 42.7463C27.9044 43.5217 28.463 44.1544 29.2131 44.4045C31.0222 45.0075 32.978 45.0075 34.7871 44.4045C35.5372 44.1544 36.0958 43.5217 36.2508 42.7463L36.6361 40.82C36.9741 39.13 37.1431 38.285 37.714 37.7141C38.285 37.1432 39.1299 36.9742 40.8199 36.6362L42.7463 36.2509C43.5216 36.0958 44.1544 35.5372 44.4044 34.7871C45.0074 32.9781 45.0074 31.0222 44.4044 29.2131C44.1544 28.4631 43.5216 27.9044 42.7463 27.7494L40.8199 27.3641C39.1299 27.0261 38.285 26.8571 37.714 26.2862C37.1431 25.7153 36.9741 24.8703 36.6361 23.1803L36.2508 21.2539C36.0958 20.4786 35.5372 19.8458 34.7871 19.5958Z" fill="white"/>
<path d="M82.7521 50V13.6364H97.9155C100.638 13.6364 102.917 14.0211 104.751 14.7905C106.598 15.5599 107.983 16.6371 108.906 18.022C109.841 19.407 110.309 21.0109 110.309 22.8338C110.309 24.2188 110.019 25.4557 109.439 26.5447C108.859 27.6219 108.06 28.5156 107.042 29.2259C106.024 29.9361 104.846 30.4332 103.509 30.7173V31.0724C104.976 31.1435 106.332 31.54 107.575 32.2621C108.829 32.9841 109.835 33.9903 110.593 35.2805C111.351 36.5589 111.729 38.0741 111.729 39.826C111.729 41.7791 111.232 43.5251 110.238 45.0639C109.244 46.5909 107.805 47.7983 105.923 48.6861C104.041 49.562 101.757 50 99.0696 50H82.7521ZM91.5412 42.9155H96.9744C98.8802 42.9155 100.283 42.5545 101.183 41.8324C102.094 41.1103 102.55 40.1042 102.55 38.8139C102.55 37.8788 102.331 37.0739 101.893 36.3991C101.455 35.7126 100.833 35.1858 100.028 34.8189C99.2235 34.4401 98.2588 34.2507 97.1342 34.2507H91.5412V42.9155ZM91.5412 28.5866H96.4062C97.3651 28.5866 98.2173 28.4268 98.9631 28.1072C99.7088 27.7876 100.289 27.326 100.703 26.7223C101.129 26.1186 101.342 25.3906 101.342 24.5384C101.342 23.3191 100.91 22.3603 100.046 21.6619C99.1821 20.9635 98.0161 20.6143 96.5483 20.6143H91.5412V28.5866ZM115.955 13.6364H126.839L136.072 36.1506H136.499L145.732 13.6364H156.616V50H148.058V27.6634H147.756L139.02 49.7692H133.551L124.815 27.5391H124.513V50H115.955V13.6364ZM170.887 13.6364V50H162.098V13.6364H170.887Z" fill="#111827"/>
<path d="M182.131 50L188.168 13.6364H209.972L209.332 17.5426H191.932L189.872 29.8295H205.639L205 33.7358H189.233L186.534 50H182.131ZM210.908 50L215.454 22.7273H219.644L215.099 50H210.908ZM218.827 18.1108C218.01 18.1108 217.306 17.8326 216.714 17.2763C216.134 16.7199 215.844 16.0511 215.844 15.2699C215.844 14.4886 216.134 13.8198 216.714 13.2635C217.306 12.7071 218.01 12.429 218.827 12.429C219.644 12.429 220.342 12.7071 220.922 13.2635C221.514 13.8198 221.81 14.4886 221.81 15.2699C221.81 16.0511 221.514 16.7199 220.922 17.2763C220.342 17.8326 219.644 18.1108 218.827 18.1108ZM239.18 22.7273L238.612 26.2784H224.478L225.046 22.7273H239.18ZM230.231 16.1932H234.421L230.089 42.1875C229.899 43.3712 229.929 44.259 230.178 44.8509C230.438 45.4309 230.829 45.8215 231.349 46.0227C231.882 46.2121 232.456 46.3068 233.072 46.3068C233.533 46.3068 233.912 46.2831 234.208 46.2358C234.504 46.1766 234.741 46.1293 234.918 46.0938L235.202 49.858C234.883 49.9645 234.451 50.071 233.906 50.1776C233.374 50.2959 232.717 50.3551 231.935 50.3551C230.752 50.3551 229.639 50.1006 228.597 49.5916C227.556 49.0826 226.757 48.3073 226.2 47.2656C225.644 46.224 225.496 44.91 225.756 43.3239L230.231 16.1932Z" fill="#111827"/>
</svg>
