<svg width="235" height="223" viewBox="0 0 235 223" fill="none" xmlns="http://www.w3.org/2000/svg">
<path d="M128.648 26.3832C121.412 23.9711 113.541 23.9869 106.305 26.399C103.339 27.3878 101.092 29.8726 100.425 32.9276L98.6454 41.0855C97.2074 47.6766 96.4883 50.9722 94.2323 53.1971C91.9763 55.4221 88.6711 56.0954 82.0607 57.442L74.4976 58.9826C71.4057 59.6124 68.884 61.8495 67.8862 64.8429C65.4741 72.0792 65.4709 79.9122 67.883 87.1485C68.8831 90.1489 71.4143 92.3833 74.5155 93.0036L82.221 94.5447C88.9809 95.8967 92.3609 96.5727 94.6445 98.8563C96.9282 101.14 97.6042 104.52 98.9562 111.28L100.497 118.985C101.118 122.087 103.352 124.618 106.352 125.618C113.589 128.03 121.412 128.03 128.648 125.618C131.649 124.618 133.883 122.087 134.503 118.985L136.044 111.28C137.396 104.52 138.072 101.14 140.356 98.8563C142.64 96.5727 146.02 95.8967 152.78 94.5447L160.485 93.0036C163.586 92.3833 166.118 90.1489 167.118 87.1485C169.53 79.9122 169.53 72.0889 167.118 64.8526C166.118 61.8522 163.586 59.6178 160.485 58.9975L152.78 57.4564C146.02 56.1044 142.64 55.4284 140.356 53.1448C138.072 50.8611 137.396 47.4811 136.044 40.7212L134.503 33.0157C133.883 29.9145 131.649 27.3833 128.648 26.3832Z" fill="white"/>
<path d="M15.5778 211V163.727H35.2901C38.8294 163.727 41.7917 164.227 44.1768 165.228C46.5774 166.228 48.3778 167.628 49.5781 169.429C50.7938 171.229 51.4016 173.314 51.4016 175.684C51.4016 177.484 51.0246 179.092 50.2706 180.508C49.5166 181.908 48.4779 183.07 47.1545 183.994C45.8311 184.917 44.3 185.563 42.5611 185.933V186.394C44.4692 186.487 46.2312 187.002 47.8469 187.941C49.4781 188.879 50.7861 190.187 51.771 191.865C52.7558 193.527 53.2482 195.496 53.2482 197.774C53.2482 200.313 52.6019 202.583 51.3093 204.583C50.0167 206.568 48.147 208.138 45.7003 209.292C43.2536 210.431 40.2836 211 36.7905 211H15.5778ZM27.0036 201.79H34.0668C36.5443 201.79 38.3678 201.321 39.5373 200.382C40.7222 199.443 41.3146 198.135 41.3146 196.458C41.3146 195.242 41.0299 194.196 40.4606 193.319C39.8912 192.426 39.0833 191.742 38.0369 191.265C36.9905 190.772 35.7364 190.526 34.2745 190.526H27.0036V201.79ZM27.0036 183.163H33.3281C34.5746 183.163 35.6825 182.955 36.652 182.539C37.6214 182.124 38.3755 181.524 38.9141 180.739C39.468 179.954 39.745 179.008 39.745 177.9C39.745 176.315 39.1834 175.068 38.06 174.161C36.9367 173.253 35.4209 172.799 33.5128 172.799H27.0036V183.163ZM58.7418 163.727H72.8913L84.8942 192.996H85.4482L97.451 163.727H111.6V211H100.475V181.962H100.082L88.7259 210.7H81.6165L70.2599 181.801H69.8675V211H58.7418V163.727ZM130.153 163.727V211H118.727V163.727H130.153Z" fill="white"/>
<path d="M147.77 211L155.618 163.727H183.963L183.132 168.805H160.511L157.834 184.778H178.331L177.5 189.857H157.003L153.494 211H147.77ZM185.181 211L191.09 175.545H196.537L190.628 211H185.181ZM195.475 169.544C194.414 169.544 193.498 169.182 192.729 168.459C191.975 167.736 191.598 166.866 191.598 165.851C191.598 164.835 191.975 163.966 192.729 163.243C193.498 162.519 194.414 162.158 195.475 162.158C196.537 162.158 197.445 162.519 198.199 163.243C198.969 163.966 199.353 164.835 199.353 165.851C199.353 166.866 198.969 167.736 198.199 168.459C197.445 169.182 196.537 169.544 195.475 169.544ZM221.934 175.545L221.195 180.162H202.821L203.56 175.545H221.934ZM210.3 167.051H215.748L210.115 200.844C209.869 202.383 209.908 203.537 210.231 204.306C210.569 205.06 211.077 205.568 211.754 205.83C212.447 206.076 213.193 206.199 213.993 206.199C214.593 206.199 215.086 206.168 215.471 206.107C215.855 206.03 216.163 205.968 216.394 205.922L216.763 210.815C216.348 210.954 215.786 211.092 215.078 211.231C214.386 211.385 213.532 211.462 212.516 211.462C210.977 211.462 209.531 211.131 208.176 210.469C206.822 209.807 205.784 208.799 205.06 207.445C204.337 206.091 204.145 204.383 204.483 202.321L210.3 167.051Z" fill="white"/>
</svg>
